<mxfile host="65bd71144e">
    <diagram id="zNJKLkv79PcxBhv4lR1F" name="Page-1">
        <mxGraphModel dx="907" dy="411" grid="1" gridSize="10" guides="1" tooltips="1" connect="1" arrows="0" fold="1" page="1" pageScale="1" pageWidth="827" pageHeight="1169" math="0" shadow="0">
            <root>
                <mxCell id="0"/>
                <mxCell id="1" parent="0"/>
                <object label="Ramp" block="Ramp" slope="1" starttime="0" initialoutput="0" type="block" name="" id="2">
                    <mxCell style="whiteSpace=wrap;html=1;fontSize=11;points=[[1,0.5,0,0,0]];metaEdit=1;snapToPoint=0;resizable=0;rotatable=0;allowArrows=0;container=1;collapsible=0;movable=1;connectable=0;" parent="1" vertex="1">
                        <mxGeometry x="40" y="210" width="50" height="40" as="geometry"/>
                    </mxCell>
                </object>
                <object label="&lt;p style=&quot;line-height: 100%;&quot;&gt;&lt;br&gt;&lt;/p&gt;" type="outport" name="out" id="3">
                    <mxCell style="whiteSpace=wrap;html=1;aspect=fixed;snapToPoint=1;resizable=0;metaEdit=1;points=[[1,0.5,0,0,0]];editable=1;movable=0;rotatable=1;deletable=1;locked=0;connectable=1;noLabel=0;overflow=visible;fillColor=#000000;" parent="2" vertex="1">
                        <mxGeometry x="45" y="15" width="10" height="10" as="geometry"/>
                    </mxCell>
                </object>
                <object label="1-D" block="OneDLookupTable" breaks="df.distance_road_surface" y="df.z_height_road_surface" type="block" name="table" interpmethod="&quot;LinearPointSlope&quot;" extrapmethod="&quot;LinearEx&quot;" indexsearchmethod="&quot;BinarySearch&quot;" id="4">
                    <mxCell style="whiteSpace=wrap;html=1;aspect=fixed;fontSize=11;points=[[0,0.5,0,0,0],[1,0.5,0,0,0]];metaEdit=1;snapToPoint=0;resizable=0;rotatable=0;allowArrows=0;container=1;collapsible=0;movable=1;connectable=0;" parent="1" vertex="1">
                        <mxGeometry x="140" y="210" width="40" height="40" as="geometry"/>
                    </mxCell>
                </object>
                <object label="&lt;p style=&quot;line-height: 100%;&quot;&gt;&lt;br&gt;&lt;/p&gt;" type="outport" name="out" id="5">
                    <mxCell style="whiteSpace=wrap;html=1;aspect=fixed;snapToPoint=1;resizable=0;metaEdit=1;points=[[1,0.5,0,0,0]];editable=1;movable=0;rotatable=1;deletable=1;locked=0;connectable=1;noLabel=0;overflow=visible;fillColor=#000000;" parent="4" vertex="1">
                        <mxGeometry x="35" y="15" width="10" height="10" as="geometry"/>
                    </mxCell>
                </object>
                <object label="&lt;p style=&quot;line-height: 100%;&quot;&gt;&lt;br&gt;&lt;/p&gt;" type="inport" name="in" id="6">
                    <mxCell style="whiteSpace=wrap;html=1;aspect=fixed;snapToPoint=1;resizable=0;metaEdit=1;points=[[0,0.5,0,0,0]];editable=1;movable=0;rotatable=1;deletable=1;locked=0;connectable=1;noLabel=0;overflow=visible;direction=east;" parent="4" vertex="1">
                        <mxGeometry x="-5" y="15" width="10" height="10" as="geometry"/>
                    </mxCell>
                </object>
                <mxCell id="7" style="edgeStyle=none;html=1;exitX=1;exitY=0.5;exitDx=0;exitDy=0;exitPerimeter=0;entryX=0;entryY=0.5;entryDx=0;entryDy=0;entryPerimeter=0;" parent="1" source="3" target="6" edge="1">
                    <mxGeometry relative="1" as="geometry"/>
                </mxCell>
            </root>
        </mxGraphModel>
    </diagram>
</mxfile>